<svg xmlns="http://www.w3.org/2000/svg" viewBox="1972 614 44 40"><defs><style>.a{fill:#0288d1;}</style></defs><path class="a" d="M43,22V38a4.012,4.012,0,0,1-4,4H7a4.012,4.012,0,0,1-4-4V22a2.006,2.006,0,0,1-2-2V14a4.012,4.012,0,0,1,4-4h6.34A6.008,6.008,0,0,1,17,2a6.067,6.067,0,0,1,4.86,2.48V4.46L23,6l1.14-1.54v.02A6.067,6.067,0,0,1,29,2a6.008,6.008,0,0,1,5.66,8H41a4.012,4.012,0,0,1,4,4v6a2.006,2.006,0,0,1-2,2M7,38H21V22H7V38m32,0V22H25V38H39M17,6a2,2,0,1,0,2,2,2.006,2.006,0,0,0-2-2M29,6a2,2,0,1,0,2,2,2.006,2.006,0,0,0-2-2M5,14v4H21V14H5m20,0v4H41V14Z" transform="translate(1971 612)"/></svg>