<svg xmlns="http://www.w3.org/2000/svg" viewBox="2662 619 45 30.316"><defs><style>.a{fill:#0288d1;}</style></defs><path class="a" d="M5.461,22,4.039,19.158h9.947L12.85,16.316H3.566L2.145,13.474H16.924l-1.137-2.842H1.879L.25,7.789H7.355A3.8,3.8,0,0,1,11.145,4H33.882v7.579h5.684l5.684,7.579v9.474H41.461a5.684,5.684,0,0,1-11.368,0H22.513a5.684,5.684,0,0,1-11.368,0H7.355V22H5.461m30.316,9.474a2.842,2.842,0,1,0-2.842-2.842,2.838,2.838,0,0,0,2.842,2.842m2.842-17.053H33.882v4.737h8.451l-3.714-4.737M16.829,31.474a2.842,2.842,0,1,0-2.842-2.842A2.838,2.838,0,0,0,16.829,31.474Z" transform="translate(2661.75 615)"/></svg>