<svg xmlns="http://www.w3.org/2000/svg" xmlns:xlink="http://www.w3.org/1999/xlink" viewBox="2693 2960 30 30"><defs><style>.a{fill:#d4d4d4;stroke:#95989a;}.b{clip-path:url(#a);}.c{fill:#21b8fc;}</style><clipPath id="a"><rect class="a" width="30" height="30" transform="translate(869 2619)"/></clipPath></defs><g class="b" transform="translate(1824 341)"><path class="c" d="M30.378,22.7a13.232,13.232,0,0,1,2.985,3.451c.995,1.648-1.088,1.772-1.088,1.772l-4.011.062a2.821,2.821,0,0,1-1.99-.606c-1.508-1.026-2.954-3.716-4.027-3.358-1.1.358-1.073,2.767-1.073,2.767a.97.97,0,0,1-.249.606,1.007,1.007,0,0,1-.824.187H18.314a9.7,9.7,0,0,1-7.431-3.218C7.074,20.412,3.716,12.639,3.716,12.639s-.187-.466.016-.731c.233-.249.886-.249.886-.249H8.908a1.12,1.12,0,0,1,.684.249,1.386,1.386,0,0,1,.373.529,27.382,27.382,0,0,0,1.617,3.311c1.788,3.094,2.612,3.762,3.187,3.436.933-.482.668-4.369.668-4.369a4.294,4.294,0,0,0-.451-2.037,2.023,2.023,0,0,0-1.337-.668c-.249-.031.155-.591.668-.855a10.225,10.225,0,0,1,3.747-.373,7.547,7.547,0,0,1,2.1.2c1.492.358.979,1.741.979,5.037,0,1.073-.155,2.534.575,3.047.326.218,1.135.031,3.156-3.374a27.4,27.4,0,0,0,1.648-3.529,1.382,1.382,0,0,1,.389-.482,1.548,1.548,0,0,1,.591-.124H32.01s1.368-.155,1.586.451c.233.637-.513,2.145-2.363,4.586C28.217,20.739,27.875,20.366,30.378,22.7Z" transform="translate(865.363 2614.559)"/></g></svg>