<svg xmlns="http://www.w3.org/2000/svg" xmlns:xlink="http://www.w3.org/1999/xlink" viewBox="2693 3030 30 30"><defs><style>.a{fill:#fff;stroke:#95989a;}.b{clip-path:url(#a);}.c{fill:#21b8fc;}</style><clipPath id="a"><rect class="a" width="30" height="30" transform="translate(869 2689)"/></clipPath></defs><g class="b" transform="translate(1824 341)"><path class="c" d="M11.7,3H24.3A8.706,8.706,0,0,1,33,11.7V24.3A8.706,8.706,0,0,1,24.3,33H11.7A8.706,8.706,0,0,1,3,24.3V11.7A8.706,8.706,0,0,1,11.7,3m-.3,3A5.4,5.4,0,0,0,6,11.4V24.6A5.4,5.4,0,0,0,11.4,30H24.6A5.4,5.4,0,0,0,30,24.6V11.4A5.4,5.4,0,0,0,24.6,6H11.4M25.875,8.25A1.875,1.875,0,1,1,24,10.125,1.876,1.876,0,0,1,25.875,8.25M18,10.5A7.5,7.5,0,1,1,10.5,18,7.5,7.5,0,0,1,18,10.5m0,3A4.5,4.5,0,1,0,22.5,18,4.494,4.494,0,0,0,18,13.5Z" transform="translate(866 2686)"/></g></svg>