<svg xmlns="http://www.w3.org/2000/svg" xmlns:xlink="http://www.w3.org/1999/xlink" viewBox="2763 3030 30 30"><defs><style>.a{fill:#fff;stroke:#95989a;}.b{clip-path:url(#a);}.c{fill:#21b8fc;}</style><clipPath id="a"><rect class="a" width="30" height="30" transform="translate(939 2689)"/></clipPath></defs><g class="b" transform="translate(1824 341)"><path class="c" d="M26.748,19.112c-.42-.855-1.605-1.575-3.18-.36A10.265,10.265,0,0,1,18,20.463a10.265,10.265,0,0,1-5.566-1.71c-1.575-1.215-2.76-.5-3.18.36-.75,1.5.09,2.235,2,3.45a12.81,12.81,0,0,0,5.311,1.59l-1.2,1.2c-1.71,1.7-3.36,3.33-4.486,4.471a1.711,1.711,0,0,0,0,2.43l.21.24a1.748,1.748,0,0,0,2.46,0L18,28.024c1.725,1.7,3.36,3.33,4.5,4.471a1.748,1.748,0,0,0,2.46,0l.2-.24a1.685,1.685,0,0,0,0-2.43l-4.471-4.471L19.5,24.138a12.532,12.532,0,0,0,5.251-1.575c1.905-1.215,2.745-1.95,2-3.45M18,6.856a3.735,3.735,0,1,1-3.75,3.735A3.749,3.749,0,0,1,18,6.856m0,11.326a7.591,7.591,0,1,0-7.591-7.591A7.581,7.581,0,0,0,18,18.182Z" transform="translate(935.998 2686)"/></g></svg>