<svg xmlns="http://www.w3.org/2000/svg" xmlns:xlink="http://www.w3.org/1999/xlink" viewBox="1999 1390 90 15.25"><defs><style>.a{fill:none;}.b{clip-path:url(#a);}.c{fill:#ffeb3b;}</style><clipPath id="a"><rect class="a" width="90" height="15.25"/></clipPath></defs><g class="b" transform="translate(1999 1390)"><g transform="translate(-278.6 -785.5)"><path class="c" d="M9.5,13.452l4.635,2.8L12.9,10.977,17,7.43l-5.393-.465L9.5,2,7.392,6.965,2,7.43l4.087,3.548L4.865,16.25Z" transform="translate(276.6 783.5)"/></g><g transform="translate(-260.6 -785.5)"><path class="c" d="M9.5,13.452l4.635,2.8L12.9,10.977,17,7.43l-5.393-.465L9.5,2,7.392,6.965,2,7.43l4.087,3.548L4.865,16.25Z" transform="translate(276.6 783.5)"/></g><g transform="translate(-242.6 -785.5)"><path class="c" d="M9.5,13.452l4.635,2.8L12.9,10.977,17,7.43l-5.393-.465L9.5,2,7.392,6.965,2,7.43l4.087,3.548L4.865,16.25Z" transform="translate(276.6 783.5)"/></g><g transform="translate(-224.6 -785.5)"><path class="c" d="M9.5,13.452l4.635,2.8L12.9,10.977,17,7.43l-5.393-.465L9.5,2,7.392,6.965,2,7.43l4.087,3.548L4.865,16.25Z" transform="translate(276.6 783.5)"/></g><g transform="translate(-206.6 -785.5)"><path class="c" d="M9.5,13.452l4.635,2.8L12.9,10.977,17,7.43l-5.393-.465L9.5,2,7.392,6.965,2,7.43l4.087,3.548L4.865,16.25Z" transform="translate(276.6 783.5)"/></g></g></svg>